<svg width="24" height="25" viewBox="0 0 24 25" fill="none" xmlns="http://www.w3.org/2000/svg">
<path d="M19 3.09595H14.82C14.4 1.93595 13.3 1.09595 12 1.09595C10.7 1.09595 9.6 1.93595 9.18 3.09595H5C3.9 3.09595 3 3.99595 3 5.09595V19.0959C3 20.1959 3.9 21.0959 5 21.0959H19C20.1 21.0959 21 20.1959 21 19.0959V5.09595C21 3.99595 20.1 3.09595 19 3.09595ZM12 3.09595C12.55 3.09595 13 3.54595 13 4.09595C13 4.64595 12.55 5.09595 12 5.09595C11.45 5.09595 11 4.64595 11 4.09595C11 3.54595 11.45 3.09595 12 3.09595ZM14 17.0959H7V15.0959H14V17.0959ZM17 13.0959H7V11.0959H17V13.0959ZM17 9.09595H7V7.09595H17V9.09595Z" fill="#8E8E93"/>
</svg>
