<svg width="24" height="25" viewBox="0 0 24 25" fill="none" xmlns="http://www.w3.org/2000/svg">
<path d="M16 11.8127C17.66 11.8127 18.99 10.4605 18.99 8.78533C18.99 7.11017 17.66 5.75793 16 5.75793C14.34 5.75793 13 7.11017 13 8.78533C13 10.4605 14.34 11.8127 16 11.8127ZM8 11.8127C9.66 11.8127 10.99 10.4605 10.99 8.78533C10.99 7.11017 9.66 5.75793 8 5.75793C6.34 5.75793 5 7.11017 5 8.78533C5 10.4605 6.34 11.8127 8 11.8127ZM8 13.831C5.67 13.831 1 15.0117 1 17.363V19.8858H15V17.363C15 15.0117 10.33 13.831 8 13.831ZM16 13.831C15.71 13.831 15.38 13.8512 15.03 13.8815C16.19 14.7291 17 15.8694 17 17.363V19.8858H23V17.363C23 15.0117 18.33 13.831 16 13.831Z" fill="#8E8E93"/>
</svg>
