<svg width="17" height="4" viewBox="0 0 17 4" fill="none" xmlns="http://www.w3.org/2000/svg">
<path fill-rule="evenodd" clip-rule="evenodd" d="M2.70399 0C1.64017 0 0.769775 0.9 0.769775 2C0.769775 3.1 1.64017 4 2.70399 4C3.7678 4 4.6382 3.1 4.6382 2C4.6382 0.9 3.7678 0 2.70399 0ZM14.3092 0C13.2454 0 12.375 0.9 12.375 2C12.375 3.1 13.2454 4 14.3092 4C15.3731 4 16.2435 3.1 16.2435 2C16.2435 0.9 15.3731 0 14.3092 0ZM8.50662 0C7.4428 0 6.57241 0.9 6.57241 2C6.57241 3.1 7.4428 4 8.50662 4C9.57043 4 10.4408 3.1 10.4408 2C10.4408 0.9 9.57043 0 8.50662 0Z" fill="#C3CAD9"/>
</svg>
